<svg xmlns="http://www.w3.org/2000/svg" xmlns:xlink="http://www.w3.org/1999/xlink" width="89.906" height="76.937" viewBox="0 0 89.906 76.937">
  <metadata><?xpacket begin="﻿" id="W5M0MpCehiHzreSzNTczkc9d"?>
<x:xmpmeta xmlns:x="adobe:ns:meta/" x:xmptk="Adobe XMP Core 5.6-c142 79.160924, 2017/07/13-01:06:39        ">
   <rdf:RDF xmlns:rdf="http://www.w3.org/1999/02/22-rdf-syntax-ns#">
      <rdf:Description rdf:about=""/>
   </rdf:RDF>
</x:xmpmeta>
<?xpacket end="w"?></metadata>
<defs>
    <style>
      .cls-1 {
        fill: #fff;
        fill-rule: evenodd;
        filter: url(#filter);
      }
    </style>
    <filter id="filter" x="151" y="141.063" width="89.906" height="76.937" filterUnits="userSpaceOnUse">
      <feOffset result="offset" dy="1" in="SourceAlpha"/>
      <feGaussianBlur result="blur"/>
      <feFlood result="flood" flood-color="#06b3db" flood-opacity="0.75"/>
      <feComposite result="composite" operator="in" in2="blur"/>
      <feBlend result="blend" in="SourceGraphic"/>
    </filter>
  </defs>
  <path id="CR_Alt" data-name="CR Alt" class="cls-1" d="M216.393,206.444H214.35a18.384,18.384,0,0,0-1.928-8.172h3.971a16.345,16.345,0,1,0-8.855-30.052,24.492,24.492,0,1,0-27.869,29.692,18.364,18.364,0,0,0-2.067,7.942,32.681,32.681,0,1,1,34.636-48.025A24.488,24.488,0,1,1,216.393,206.444ZM195.962,192l7.223,7.224a10.215,10.215,0,1,1-14.447,0Z" transform="translate(-151 -141.063)"/>
</svg>
