<svg xmlns="http://www.w3.org/2000/svg" xmlns:xlink="http://www.w3.org/1999/xlink" width="85.969" height="77.875" viewBox="0 0 85.969 77.875">
  <metadata><?xpacket begin="﻿" id="W5M0MpCehiHzreSzNTczkc9d"?>
<x:xmpmeta xmlns:x="adobe:ns:meta/" x:xmptk="Adobe XMP Core 5.6-c142 79.160924, 2017/07/13-01:06:39        ">
   <rdf:RDF xmlns:rdf="http://www.w3.org/1999/02/22-rdf-syntax-ns#">
      <rdf:Description rdf:about=""/>
   </rdf:RDF>
</x:xmpmeta>
                                                                                                    
                                                                                                    
                                                                                                    
                                                                                                    
                                                                                                    
                                                                                                    
                                                                                                    
                                                                                                    
                                                                                                    
                                                                                                    
                                                                                                    
                                                                                                    
                                                                                                    
                                                                                                    
                                                                                                    
                                                                                                    
                                                                                                    
                                                                                                    
                                                                                                    
                                                                                                    
                           
<?xpacket end="w"?></metadata>
<defs>
    <style>
      .cls-1 {
        fill: #fff;
        fill-rule: evenodd;
        filter: url(#filter);
      }
    </style>
    <filter id="filter" x="564.344" y="141.125" width="85.969" height="77.875" filterUnits="userSpaceOnUse">
      <feOffset result="offset" dy="1" in="SourceAlpha"/>
      <feGaussianBlur result="blur"/>
      <feFlood result="flood" flood-color="#6139f6" flood-opacity="0.75"/>
      <feComposite result="composite" operator="in" in2="blur"/>
      <feBlend result="blend" in="SourceGraphic"/>
    </filter>
  </defs>
  <path id="CS" class="cls-1" d="M647.113,182.524h-6.368a3.184,3.184,0,0,1,0-6.367h6.368A3.184,3.184,0,1,1,647.113,182.524ZM634.6,161.33a3.184,3.184,0,1,1-4.5-4.5l4.5-4.5a3.184,3.184,0,1,1,4.5,4.5Zm-4.692,24.848h0a19.1,19.1,0,0,1-14.637,31.369H589.8a25.471,25.471,0,1,1,7.2-49.9A19.08,19.08,0,0,1,629.912,186.178Zm-59.211,5.9a19.1,19.1,0,0,0,19.1,19.1h25.471a12.736,12.736,0,1,0-6.9-23.416A19.081,19.081,0,0,0,570.7,192.076Zm41.39-25.471a12.692,12.692,0,0,0-9.016,3.742,25.607,25.607,0,0,1,8.962,9.32,18.253,18.253,0,0,1,12.551,2.1h0A12.718,12.718,0,0,0,612.091,166.605Zm0-12.735a3.184,3.184,0,0,1-3.184-3.184v-6.368a3.184,3.184,0,1,1,6.368,0v6.368A3.185,3.185,0,0,1,612.091,153.87Zm-22.514,7.46-4.5-4.5a3.184,3.184,0,0,1,4.5-4.5l4.5,4.5A3.184,3.184,0,1,1,589.577,161.33Z" transform="translate(-564.344 -141.125)"/>
</svg>
