<svg xmlns="http://www.w3.org/2000/svg" xmlns:xlink="http://www.w3.org/1999/xlink" width="62.281" height="65.375" viewBox="0 0 62.281 65.375">
  <metadata><?xpacket begin="﻿" id="W5M0MpCehiHzreSzNTczkc9d"?>
<x:xmpmeta xmlns:x="adobe:ns:meta/" x:xmptk="Adobe XMP Core 5.6-c142 79.160924, 2017/07/13-01:06:39        ">
   <rdf:RDF xmlns:rdf="http://www.w3.org/1999/02/22-rdf-syntax-ns#">
      <rdf:Description rdf:about=""/>
   </rdf:RDF>
</x:xmpmeta>
                                                                                                    
                                                                                                    
                                                                                                    
                                                                                                    
                                                                                                    
                                                                                                    
                                                                                                    
                                                                                                    
                                                                                                    
                                                                                                    
                                                                                                    
                                                                                                    
                                                                                                    
                                                                                                    
                                                                                                    
                                                                                                    
                                                                                                    
                                                                                                    
                                                                                                    
                                                                                                    
                           
<?xpacket end="w"?></metadata>
<defs>
    <style>
      .cls-1 {
        fill: #fff;
        fill-rule: evenodd;
        filter: url(#filter);
      }
    </style>
    <filter id="filter" x="366.5" y="324.625" width="62.281" height="65.375" filterUnits="userSpaceOnUse">
      <feOffset result="offset" dy="1" in="SourceAlpha"/>
      <feGaussianBlur result="blur"/>
      <feFlood result="flood" flood-color="#dc3d66" flood-opacity="0.75"/>
      <feComposite result="composite" operator="in" in2="blur"/>
      <feBlend result="blend" in="SourceGraphic"/>
    </filter>
  </defs>
  <path id="CWM" class="cls-1" d="M422.713,374.154v0.06h-4.324a2.306,2.306,0,1,1,0-4.612h3.459a2.306,2.306,0,0,0,0-4.612,2.306,2.306,0,1,1,.465-4.565A6.9,6.9,0,0,1,422.713,374.154Zm-6.3-23h0.011a13.794,13.794,0,0,1,.577,2.149,11.444,11.444,0,0,0-5.591-2.093c-0.011-.02-0.025-0.037-0.037-0.056h0a9.182,9.182,0,0,0-12.977-3.123,13.82,13.82,0,0,0-27.287,3.123h0a13.836,13.836,0,0,0,13.836,13.836h25.366a2.306,2.306,0,1,0,0-4.612,2.306,2.306,0,1,1,.465-4.565,6.9,6.9,0,0,1,.4,13.729v0.06H384.952a2.306,2.306,0,0,0,0,4.612h26.231v0.06a6.9,6.9,0,0,1-.4,13.729,2.306,2.306,0,1,1-.465-4.565,2.306,2.306,0,1,0,0-4.612h-26.23v-0.059a6.917,6.917,0,0,1-6.054-6.859,6.8,6.8,0,0,1,.892-3.333A18.438,18.438,0,1,1,391.5,333.914a13.77,13.77,0,0,1,15.6-9.035,9.2,9.2,0,0,0,11.046,11.047,13.7,13.7,0,0,1-3.422,11.9A13.851,13.851,0,0,1,416.417,351.154Zm-13.926-21.667a9.214,9.214,0,0,0-6.831,6.658h0a18.562,18.562,0,0,1,5.4,6.022,13.279,13.279,0,0,1,10.422,2.382,9.214,9.214,0,0,0,2.06-4.016A13.836,13.836,0,0,1,402.491,329.487Z" transform="translate(-366.5 -324.625)"/>
</svg>
