<svg xmlns="http://www.w3.org/2000/svg" viewBox="0 0 144.919 119.803">
  <defs>
    <style>
      .cls-1 {
        fill: #778287;
      }
    </style>
  </defs>
  <path id="_3" data-name="3" class="cls-1" d="M362.572,267.341c-15.028,0-27.724-13.18-27.724-28.783s12.7-28.781,27.724-28.781a26.83,26.83,0,0,1,8.393,1.352,27.661,27.661,0,0,1,26.609-21.72A29.326,29.326,0,1,1,444.7,221a29,29,0,0,1,6.086,17.56c0,15.6-12.7,28.783-27.724,28.783Zm-22.683-28.783c0,12.839,10.386,23.685,22.683,23.685H423.06c12.3,0,22.683-10.846,22.683-23.685s-10.386-23.684-22.683-23.684a2.487,2.487,0,0,1-.5.05,2.526,2.526,0,0,1-2.47-2.047,22.571,22.571,0,0,0-44.65,2.031,2.55,2.55,0,0,1-1.258,1.937,2.5,2.5,0,0,1-2.289.106,22.237,22.237,0,0,0-9.319-2.078C350.276,214.875,339.889,225.721,339.889,238.559ZM402.8,189.864A27.924,27.924,0,0,1,424.54,209.82a27.03,27.03,0,0,1,16.756,7.427,24.372,24.372,0,1,0-38.5-27.383Zm61.328,45.76L457,228.412a2.57,2.57,0,0,1,0-3.6,2.5,2.5,0,0,1,3.565,0l7.127,7.212a2.569,2.569,0,0,1,0,3.6,2.5,2.5,0,0,1-3.564,0Zm3.042-29.459a2.549,2.549,0,0,1,0-5.1h10.082a2.549,2.549,0,0,1,0,5.1Zm-13.072-31.773a2.568,2.568,0,0,1,0-3.6l7.131-7.209a2.5,2.5,0,0,1,3.564,0,2.57,2.57,0,0,1,0,3.6l-7.131,7.209a2.5,2.5,0,0,1-3.564,0Zm-60.591,0-7.131-7.209a2.57,2.57,0,0,1,0-3.6,2.5,2.5,0,0,1,3.564,0l7.131,7.209a2.569,2.569,0,0,1,0,3.6,2.5,2.5,0,0,1-3.564,0Zm28.3-14.109v-10.2a2.521,2.521,0,1,1,5.041,0v10.2a2.521,2.521,0,1,1-5.041,0Z" transform="translate(-334.849 -147.538)"/>
</svg>
