<svg xmlns="http://www.w3.org/2000/svg" viewBox="0 0 21 19">
  <defs>
    <style>
      .cls-1 {
        fill: #d5dbdc;
      }
    </style>
  </defs>
  <path id="refresh" class="cls-1" d="M581,96.9v5.7a.952.952,0,0,1-.955.95h-5.727a.95.95,0,1,1,0-1.9h3.219c-1.295-1.256-2.315-2.248-2.592-2.524a7.572,7.572,0,1,0,1.8,7.908.954.954,0,0,1,1.8.632,9.441,9.441,0,0,1-.908,1.874,9.569,9.569,0,0,1-14.843,1.678A9.492,9.492,0,0,1,565.954,95.7,9.569,9.569,0,0,1,576.3,97.783c.285.284,1.4,1.369,2.8,2.721V96.9a.955.955,0,0,1,1.909,0Z" transform="translate(-560 -95)"/>
</svg>
