<svg xmlns="http://www.w3.org/2000/svg" viewBox="0 0 21 21">
  <defs>
    <style>
      .cls-1 {
        fill: #525a5d;
      }
    </style>
  </defs>
  <path id="Shape_3" data-name="Shape 3" class="cls-1" d="M491.875,454.375v1.75a.875.875,0,0,1-1.75,0v-1.75a.875.875,0,0,1,1.75,0ZM491,471a.875.875,0,0,0-.875.875v1.75a.875.875,0,0,0,1.75,0v-1.75A.875.875,0,0,0,491,471Zm-7.425-14.425a.875.875,0,0,0,0,1.238l1.238,1.238a.875.875,0,0,0,1.238-1.238l-1.238-1.238A.875.875,0,0,0,483.575,456.575ZM495.95,468.95a.875.875,0,0,0,0,1.237l1.237,1.238a.875.875,0,0,0,1.238-1.238l-1.238-1.237A.875.875,0,0,0,495.95,468.95ZM480.5,464a.875.875,0,0,0,.875.875h1.75a.875.875,0,0,0,0-1.75h-1.75A.875.875,0,0,0,480.5,464Zm17.5,0a.875.875,0,0,0,.875.875h1.75a.875.875,0,0,0,0-1.75h-1.75A.875.875,0,0,0,498,464Zm-14.425,7.425a.875.875,0,0,0,1.238,0l1.237-1.238a.875.875,0,0,0-1.237-1.237l-1.238,1.237A.875.875,0,0,0,483.575,471.425ZM495.95,459.05a.875.875,0,0,0,1.237,0l1.238-1.238a.875.875,0,0,0-1.238-1.238l-1.237,1.238A.875.875,0,0,0,495.95,459.05Zm.3,4.95a5.25,5.25,0,1,1-5.25-5.25A5.25,5.25,0,0,1,496.25,464Zm-1.75,0a3.5,3.5,0,1,0-3.5,3.5A3.5,3.5,0,0,0,494.5,464Z" transform="translate(-480.5 -453.5)"/>
</svg>
