<svg xmlns="http://www.w3.org/2000/svg" viewBox="0 0 29.003 17.993">
  <defs>
    <style>
      .cls-1 {
        fill: #525a5d;
        stroke: #2e3335;
        stroke-linejoin: round;
      }
    </style>
  </defs>
  <path id="Shape_1" data-name="Shape 1" class="cls-1" d="M279.779,464.3c-2.948,0-3.518-2.539-5.9-2.539-2.567,0-2.948,2.566-5.9,2.566s-3.328-2.566-5.9-2.566c-2.513,0-2.948,2.539-5.9,2.539s-2.948-3.143,0-3.143c2.513,0,2.948-2.49,5.9-2.49s3.41,2.517,5.9,2.517c2.542,0,2.946-2.517,5.9-2.517s3.355,2.463,5.9,2.463C282.727,461.129,282.727,464.3,279.779,464.3Zm0-5.667c-2.948,0-3.518-2.539-5.9-2.539-2.567,0-2.948,2.567-5.9,2.567s-3.328-2.567-5.9-2.567c-2.513,0-2.948,2.539-5.9,2.539s-2.948-3.143,0-3.143c2.513,0,2.948-2.49,5.9-2.49s3.41,2.517,5.9,2.517c2.542,0,2.946-2.517,5.9-2.517s3.355,2.463,5.9,2.463C282.727,455.462,282.727,458.632,279.779,458.632Zm-23.581,8.19c2.513,0,2.948-2.49,5.9-2.49s3.41,2.517,5.9,2.517c2.542,0,2.946-2.517,5.9-2.517s3.355,2.463,5.9,2.463c2.948,0,2.948,3.17,0,3.17s-3.518-2.539-5.9-2.539c-2.567,0-2.948,2.566-5.9,2.566s-3.328-2.566-5.9-2.566c-2.513,0-2.948,2.539-5.9,2.539S253.251,466.822,256.2,466.822Z" transform="translate(-253.488 -452.499)"/>
</svg>
